<svg xmlns="http://www.w3.org/2000/svg" version="1.1" xmlns:xlink="http://www.w3.org/1999/xlink" xmlns:svgjs="http://svgjs.com/svgjs" width="600" height="200" preserveAspectRatio="none" viewBox="0 0 600 200"><g mask="url(&quot;#SvgjsMask1293&quot;)" fill="none"><rect width="600" height="200" x="0" y="0" fill="rgba(157, 192, 139, 1)"></rect><path d="M0,182.487C40.058,187.219,82.29,202.14,118.544,184.457C155.788,166.291,175.587,125.74,193.222,88.242C211.016,50.406,232.143,8.406,220.18,-31.657C208.417,-71.048,165.119,-89.761,132.571,-114.873C106.241,-135.188,77.48,-148.459,48.246,-164.312C10.157,-184.967,-24.001,-235.476,-65.224,-222.133C-106.845,-208.661,-105.209,-147.304,-124.935,-108.257C-139.306,-79.81,-158.366,-54.864,-165.425,-23.785C-172.96,9.387,-178.043,44.073,-166.831,76.189C-155.075,109.863,-131.895,139.262,-101.815,158.428C-71.797,177.555,-35.348,178.312,0,182.487" fill="#94ba80"></path><path d="M600 407.938C638.491 397.853 648.74 347.902 677.142 320.03499999999997 698.128 299.444 730.473 291.82 744.615 266.044 759.1800000000001 239.497 753.718 207.92 755.245 177.679 757.162 139.709 779.947 94.376 754.717 65.93700000000001 729.409 37.41 680.207 62.197 643.529 51.754999999999995 607.318 41.446 578.772-5.88900000000001 542.931 5.640999999999991 506.821 17.25800000000001 511.671 73.271 487.022 102.104 462.635 130.631 409.998 134.93099999999998 401.211 171.418 392.56100000000004 207.332 431.177 236.488 446.57 270.069 461.935 303.589 464.19100000000003 343.999 491.619 368.645 520.793 394.86 562.059 417.879 600 407.938" fill="#a6c696"></path></g><defs><mask id="SvgjsMask1293"><rect width="600" height="200" fill="#ffffff"></rect></mask></defs></svg>