<!DOCTYPE svg PUBLIC "-//W3C//DTD SVG 1.1//EN" "http://www.w3.org/Graphics/SVG/1.1/DTD/svg11.dtd">
<!-- Uploaded to: SVG Repo, www.svgrepo.com, Transformed by: SVG Repo Mixer Tools -->
<svg version="1.1" id="Layer_1" xmlns="http://www.w3.org/2000/svg" xmlns:xlink="http://www.w3.org/1999/xlink" viewBox="-71.38 -71.38 417.30 417.30" xml:space="preserve" width="116px" height="116px" fill="#000000">
<g id="SVGRepo_bgCarrier" stroke-width="0"/>
<g id="SVGRepo_tracerCarrier" stroke-linecap="round" stroke-linejoin="round" stroke="#CCCCCC" stroke-width="1.64721"/>
<g id="SVGRepo_iconCarrier"> <g> <g> <path style="fill:#24b383;" d="M266.79,30.221H95.107c-4.261,0-7.744,3.486-7.744,7.744v9.683h-27.11 c-4.261,0-7.744,3.486-7.744,7.744v9.025H28.613c-4.258,0-7.744,3.486-7.744,7.744v151.04c0,4.297,3.486,7.745,7.744,7.745h23.895 v9.061c0,4.261,3.486,7.745,7.744,7.745h27.11v9.683c0,4.261,3.486,7.745,7.744,7.745H266.79c4.297,0,7.745-3.486,7.745-7.745 V37.962C274.534,33.704,271.087,30.221,266.79,30.221z"/> <g> <g id="XMLID_13_"> <g> <g> <path style="fill:#293033;" d="M253.669,17.1v219.473c0,4.258-3.447,7.745-7.745,7.745H74.241 c-4.258,0-7.744-3.486-7.744-7.745v-9.683h-27.11c-4.258,0-7.744-3.486-7.744-7.745v-9.064H7.744 c-4.258,0-7.744-3.447-7.744-7.744V51.296c0-4.261,3.486-7.744,7.744-7.744h23.895v-9.025c0-4.258,3.486-7.744,7.744-7.744 h27.11V17.1c0-4.261,3.486-7.744,7.744-7.744H245.92C250.222,9.352,253.669,12.838,253.669,17.1z M238.177,228.825V24.844 H81.986v203.981H238.177z M66.497,211.397V42.272H47.134v169.126h19.363V211.397z M31.642,194.589V59.041h-16.15v135.548 H31.642z"/> </g> <g> <rect x="47.131" y="42.272" style="fill:#14664a;" width="19.363" height="169.126"/> </g> <g> <rect x="15.492" y="59.041" style="fill:#14664a;" width="16.15" height="135.548"/> </g> </g> </g> </g> <g> <g> <path style="fill:#14664a;" d="M81.986,24.844v203.981h156.191V24.844H81.986z M91.353,47.597c0-4.276,3.468-7.744,7.744-7.744 h58.091c4.276,0,7.744,3.468,7.744,7.744V94.07c0,4.276-3.468,7.744-7.744,7.744h-58.09c-4.276,0-7.744-3.468-7.744-7.744 C91.353,94.07,91.353,47.597,91.353,47.597z M219.638,217.516H98.614c-4.276,0-7.744-3.468-7.744-7.745 c0-4.276,3.468-7.745,7.744-7.745h121.024c4.276,0,7.745,3.468,7.745,7.745C227.385,214.048,223.917,217.516,219.638,217.516z M219.638,190.081H98.614c-4.276,0-7.744-3.468-7.744-7.744s3.468-7.745,7.744-7.745h121.024c4.276,0,7.745,3.468,7.745,7.745 C227.385,186.613,223.917,190.081,219.638,190.081z M219.638,162.652H98.614c-4.276,0-7.744-3.468-7.744-7.744 s3.468-7.745,7.744-7.745h121.024c4.276,0,7.745,3.468,7.745,7.745C227.385,159.184,223.917,162.652,219.638,162.652z M219.638,135.218H98.614c-4.276,0-7.744-3.468-7.744-7.744c0-4.276,3.468-7.744,7.744-7.744h121.024 c4.276,0,7.745,3.468,7.745,7.744C227.385,131.75,223.917,135.218,219.638,135.218z"/> </g> </g> </g> </g> </g>
</svg>