<svg xmlns="http://www.w3.org/2000/svg" version="1.1" xmlns:xlink="http://www.w3.org/1999/xlink" xmlns:svgjs="http://svgjs.com/svgjs" width="1440" height="384" preserveAspectRatio="none" viewBox="0 0 1440 384"><g mask="url(&quot;#SvgjsMask1102&quot;)" fill="none"><rect width="1440" height="384" x="0" y="0" fill="rgba(64, 81, 59, 1)"></rect><path d="M0,518.353C106.003,510.153,216.436,532.7,310.513,483.167C408.395,431.631,485.585,343.259,527.212,240.77C567.969,140.425,552.559,29.968,538.187,-77.38C523.686,-185.695,515.387,-301.987,443.525,-384.316C371.749,-466.547,258.49,-493.31,152.473,-519.274C50.475,-544.253,-57.409,-567.412,-155.954,-531.13C-252.004,-495.767,-316.855,-409.192,-375.108,-325.033C-428.505,-247.89,-467.575,-161.891,-476.2,-68.467C-484.551,21.983,-442.568,104.464,-422.95,193.155C-397.245,309.364,-437.353,461.173,-343.001,533.719C-250.396,604.922,-116.466,527.362,0,518.353" fill="#2a3526"></path><path d="M1440 692.35C1523.757 702.385 1598.743 781.101 1679.469 756.621 1761.021 731.89 1819.001 650.213 1845.758 569.303 1871.539 491.343 1849.001 406.367 1820.801 329.249 1796.4270000000001 262.593 1737.127 219.907 1696.67 161.594 1649.903 94.185 1636.841-1.3589999999999804 1564.535-40.12700000000001 1489.568-80.322 1395.028-70.80099999999999 1314.535-43.295000000000016 1235.781-16.384000000000015 1172.289 42.43099999999998 1124.187 110.34699999999998 1079.036 174.096 1044.482 250.331 1051.464 328.137 1057.954 400.457 1128.335 446.53499999999997 1160.209 511.776 1190.91 574.615 1176.01 665.415 1234.773 703.3399999999999 1293.523 741.2570000000001 1370.574 684.0319999999999 1440 692.35" fill="#566d50"></path></g><defs><mask id="SvgjsMask1102"><rect width="1440" height="384" fill="#ffffff"></rect></mask></defs></svg>