<svg id="visual" viewBox="0 0 600 200" width="600" height="200" xmlns="http://www.w3.org/2000/svg" xmlns:xlink="http://www.w3.org/1999/xlink" version="1.1"><rect x="0" y="0" width="600" height="200" fill="#edf1d6"></rect><path d="M0 135L12.5 136C25 137 50 139 75 139.7C100 140.3 125 139.7 150 141C175 142.3 200 145.7 225 148C250 150.3 275 151.7 300 149.2C325 146.7 350 140.3 375 137.5C400 134.7 425 135.3 450 138.5C475 141.7 500 147.3 525 147.8C550 148.3 575 143.7 587.5 141.3L600 139L600 201L587.5 201C575 201 550 201 525 201C500 201 475 201 450 201C425 201 400 201 375 201C350 201 325 201 300 201C275 201 250 201 225 201C200 201 175 201 150 201C125 201 100 201 75 201C50 201 25 201 12.5 201L0 201Z" fill="#9dc08b"></path><path d="M0 164L12.5 163.3C25 162.7 50 161.3 75 161.2C100 161 125 162 150 161.7C175 161.3 200 159.7 225 159.8C250 160 275 162 300 160.8C325 159.7 350 155.3 375 154C400 152.7 425 154.3 450 155.8C475 157.3 500 158.7 525 157.8C550 157 575 154 587.5 152.5L600 151L600 201L587.5 201C575 201 550 201 525 201C500 201 475 201 450 201C425 201 400 201 375 201C350 201 325 201 300 201C275 201 250 201 225 201C200 201 175 201 150 201C125 201 100 201 75 201C50 201 25 201 12.5 201L0 201Z" fill="#8eb681"></path><path d="M0 167L12.5 167.5C25 168 50 169 75 169.7C100 170.3 125 170.7 150 169.8C175 169 200 167 225 167.3C250 167.7 275 170.3 300 171.3C325 172.3 350 171.7 375 169.3C400 167 425 163 450 160.8C475 158.7 500 158.3 525 159.7C550 161 575 164 587.5 165.5L600 167L600 201L587.5 201C575 201 550 201 525 201C500 201 475 201 450 201C425 201 400 201 375 201C350 201 325 201 300 201C275 201 250 201 225 201C200 201 175 201 150 201C125 201 100 201 75 201C50 201 25 201 12.5 201L0 201Z" fill="#7fac78"></path><path d="M0 183L12.5 181C25 179 50 175 75 173C100 171 125 171 150 172.5C175 174 200 177 225 177.2C250 177.3 275 174.7 300 173C325 171.3 350 170.7 375 172C400 173.3 425 176.7 450 178.3C475 180 500 180 525 178.8C550 177.7 575 175.3 587.5 174.2L600 173L600 201L587.5 201C575 201 550 201 525 201C500 201 475 201 450 201C425 201 400 201 375 201C350 201 325 201 300 201C275 201 250 201 225 201C200 201 175 201 150 201C125 201 100 201 75 201C50 201 25 201 12.5 201L0 201Z" fill="#70a26f"></path><path d="M0 184L12.5 184.5C25 185 50 186 75 185.7C100 185.3 125 183.7 150 183.5C175 183.3 200 184.7 225 184.3C250 184 275 182 300 181.5C325 181 350 182 375 183.5C400 185 425 187 450 187.8C475 188.7 500 188.3 525 187C550 185.7 575 183.3 587.5 182.2L600 181L600 201L587.5 201C575 201 550 201 525 201C500 201 475 201 450 201C425 201 400 201 375 201C350 201 325 201 300 201C275 201 250 201 225 201C200 201 175 201 150 201C125 201 100 201 75 201C50 201 25 201 12.5 201L0 201Z" fill="#609966"></path></svg>