<svg width="138" height="100" viewBox="0 0 238 197" fill="none" xmlns="http://www.w3.org/2000/svg">
<path d="M117.617 147.087H103.35L103.096 147.835H103.35C103.35 148.084 103.265 148.333 103.096 148.583H108.361L107.851 149.705H103.265C103.265 149.755 103.209 149.879 103.096 150.079H101.312L101.142 150.453H102.331L102.077 150.827H96.9814L96.302 151.949H101.312C101.199 152.148 101.142 152.273 101.142 152.323H100.888C100.774 152.522 100.718 152.647 100.718 152.697H94.9433C94.7734 152.946 94.6036 153.196 94.4338 153.445C94.2639 153.694 94.0658 153.944 93.8393 154.193H100.633L100.378 154.567H100.123C99.9536 154.717 99.8403 154.841 99.7837 154.941H99.1893C98.9628 155.19 98.7364 155.44 98.5099 155.689C98.3401 155.938 98.1419 156.188 97.9155 156.437H103.011L101.907 157.559H101.737C101.68 157.609 101.624 157.659 101.567 157.709C101.51 157.759 101.426 157.833 101.312 157.933H96.5568L96.1322 158.307H97.6607C97.3777 158.556 97.0663 158.806 96.7266 159.055C96.3869 159.304 96.0755 159.554 95.7925 159.803H94.7734L93.16 160.925H90.6973C90.6407 160.975 90.5557 161.025 90.4425 161.075C90.3293 161.125 90.2161 161.199 90.1028 161.299H93.7544C92.9618 161.798 92.0843 162.297 91.1219 162.795H91.7163L89.3386 163.917H88.6592C87.6402 164.366 86.6211 164.74 85.6021 165.039H81.7807C81.1579 165.239 80.5069 165.438 79.8275 165.638C79.2048 165.787 78.5537 165.937 77.8743 166.087L77.5347 166.161H78.3839L75.3267 166.835C74.7606 166.885 74.1945 166.66 73.6283 166.161H72.8641C72.6376 165.862 72.4112 165.488 72.1847 165.039H76.091C76.0344 164.89 76.0061 164.69 76.0061 164.441V163.917H76.6005V162.795H76.0061V161.299H72.2696V160.925H74.7323V159.803H75.7513V158.307H74.2228V157.933H78.9783V157.559H79.1481V156.437H73.968V154.941H74.5625V154.567H74.8172V154.193H68.1085V154.043C68.1085 153.594 68.2784 153.146 68.6181 152.697H65.9855V154.193H65.9006V154.567H68.7879V154.941H68.9577V156.437H66.2403V157.559H71.2506V157.933H69.5522V158.307H65.476V159.803H64.5419V160.925H68.1085V161.299H69.4673V162.795H70.7411V163.917H68.2784V165.039H67.3443V166.161H69.2974V167.283H69.8069V168.031H67.7689V168.78H69.1276V169.154H69.2974V169.902H67.0895V171.024H68.6181V172.146H69.6371V172.52H68.2784V172.894H64.7967V173.268H69.4673V174.39H70.9109V174.764H63.6078V175.886H58.4277V177.008H74.3926V178.13H68.1935C68.1935 178.329 68.1368 178.529 68.0236 178.728C67.9104 178.928 67.7972 179.102 67.6839 179.252H68.4482C67.9953 179.751 67.4009 180 66.6649 180H52.8229C52.087 180 51.4925 179.751 51.0396 179.252H50.2753C50.0489 178.953 49.879 178.579 49.7658 178.13H55.965V177.008H40V175.886H45.1801V174.764H52.4832V174.39H51.0396V173.268H46.369V172.894H49.8507V172.52H51.2094V172.146H50.1904V171.024H48.6618V169.902H50.8698V169.154H50.6999V168.78H49.3412V168.031H51.3793V167.283H50.8698V166.161H48.9166V165.039H49.8507V163.917H52.3134V162.795H51.0396V161.299H49.6809V160.925H46.1142V159.803H47.0484V158.307H51.1245V157.933H52.8229V157.559H47.8126V156.437H50.5301V154.941H50.3602V154.567H47.473V154.193H47.5579V152.697H51.9737V152.323H44.0762V151.949H45.0952V150.827H52.3983V150.453H52.0586V150.079H54.6063V149.705H48.5769V148.583H55.0308V147.835H48.2372V147.087H61.1451V145.591H52.1436V145.217H51.2094V143.72H51.634C51.8039 142.972 52.2568 142.474 52.9928 142.224C53.3324 142.125 53.6155 142.075 53.842 142.075H67.6839C67.9104 142.075 68.1935 142.125 68.5331 142.224H68.6181C69.354 142.474 69.8069 142.972 69.9768 143.72H69.5522C69.6088 143.82 69.6371 143.945 69.6371 144.094V145.217H70.5712V145.591H79.5727V147.087H66.6649V147.835H73.4585V148.583H67.0046V149.705H73.0339V150.079H70.4863V150.453H70.826V150.827H63.5229V151.949H62.5038V152.323H70.4014V152.697H74.3077C74.4775 152.547 74.5908 152.423 74.6474 152.323H74.9021C74.9588 152.223 75.0154 152.148 75.072 152.098C75.1286 152.049 75.1852 151.999 75.2418 151.949H70.3165C70.5429 151.749 70.8826 151.55 71.3355 151.35L72.7791 150.827H77.9593L78.8085 150.528C78.8651 150.528 78.8934 150.528 78.8934 150.528C78.95 150.478 78.9783 150.453 78.9783 150.453H77.8743C77.9876 150.353 78.1291 150.278 78.2989 150.228C78.4688 150.178 78.6103 150.129 78.7235 150.079H80.5069L81.2712 149.705H85.8568C86.3664 149.406 86.8759 149.031 87.3854 148.583H82.2053C82.3185 148.483 82.4317 148.383 82.5449 148.283C82.7148 148.134 82.828 147.984 82.8846 147.835H82.6299C82.7431 147.735 82.8563 147.635 82.9696 147.535C83.0828 147.386 83.1677 147.236 83.2243 147.087H97.406C97.7456 146.638 98.0004 146.139 98.1702 145.591H87.81C87.81 145.491 87.81 145.416 87.81 145.366C87.8666 145.316 87.8949 145.266 87.8949 145.217H84.3283C84.4415 144.967 84.4981 144.718 84.4981 144.469C84.5547 144.219 84.6113 143.97 84.668 143.72H82.6299C82.6865 143.471 82.7148 143.222 82.7148 142.972C82.7714 142.723 82.7997 142.474 82.7997 142.224H84.7529V141.102H85.6021C85.6021 140.753 85.5738 140.504 85.5171 140.354H86.706C86.6494 140.055 86.5928 139.781 86.5362 139.531C86.4796 139.282 86.3947 139.058 86.2814 138.858H83.4791L83.2243 138.484H83.6489C83.0828 137.686 82.2336 137.188 81.1013 136.988H81.441C81.1579 136.938 80.8465 136.913 80.5069 136.913C80.2238 136.864 79.8841 136.839 79.4878 136.839H53.0777C52.2285 136.839 51.5774 136.514 51.1245 135.866H52.3983C52.1719 135.467 52.0586 135.118 52.0586 134.819V134.37H49.9356V133.622H49.8507V132.5H48.3222V131.752H50.8698V130.63H50.1904V129.882H56.984V129.508H49.9356V129.134H50.5301V128.012H50.1904V127.264H49.8507V126.142H50.615V125.02H50.2753V124.87C50.2753 124.571 50.4169 124.247 50.6999 123.898H50.615C51.1245 123.299 51.7756 123 52.5682 123H83.2243C86.2814 123 88.9423 123.299 91.2068 123.898C92.3957 124.197 93.4996 124.571 94.5187 125.02H94.8584C95.5377 125.269 96.2454 125.643 96.9814 126.142H96.2171C96.5001 126.341 96.7832 126.541 97.0663 126.74C97.3493 126.89 97.6041 127.064 97.8306 127.264H98.0853L98.9345 128.012H99.2742C99.7271 128.361 100.067 128.735 100.293 129.134H99.6988C99.8686 129.283 99.9819 129.408 100.038 129.508H107.087L107.342 129.882H100.548L101.058 130.63H101.737C101.85 130.829 101.963 131.029 102.077 131.228C102.19 131.378 102.275 131.552 102.331 131.752H99.8686L100.208 132.5H101.652C101.765 132.699 101.85 132.899 101.907 133.098C101.963 133.248 102.02 133.423 102.077 133.622H102.246C102.36 133.921 102.416 134.171 102.416 134.37H104.624L105.049 135.866H103.69L103.945 136.988H103.605C103.662 137.238 103.69 137.487 103.69 137.736C103.747 137.986 103.775 138.235 103.775 138.484H103.435V138.858H106.238L106.407 140.354H105.219V141.102H104.369V142.224H102.331C102.331 142.474 102.331 142.723 102.331 142.972C102.331 143.222 102.303 143.471 102.246 143.72H104.284L104.03 145.217H107.596C107.596 145.366 107.568 145.491 107.511 145.591H117.957C117.9 145.84 117.843 146.089 117.787 146.339C117.73 146.588 117.674 146.837 117.617 147.087Z" fill="black"/>
<path d="M151.694 134.37H153.308L153.138 134.744H151.694C151.411 135.642 150.704 136.091 149.571 136.091H146.599C146.599 136.14 146.571 136.165 146.514 136.165C146.514 136.165 146.514 136.19 146.514 136.24H147.618C147.392 136.539 147.25 136.789 147.194 136.988H148.467L148.128 137.736H146.09C146.033 137.936 145.948 138.185 145.835 138.484C145.778 138.734 145.722 138.983 145.665 139.232H143.882L143.627 139.98H148.298C148.298 140.03 148.269 140.08 148.213 140.13C148.213 140.18 148.213 140.255 148.213 140.354H146.769V140.728H144.816L144.731 141.476H144.561C144.561 141.626 144.533 141.751 144.476 141.85H144.816V142.224H144.646C144.589 142.424 144.561 142.673 144.561 142.972C144.561 143.222 144.533 143.471 144.476 143.72H144.731V144.843H144.391V145.591H144.476V146.713H144.561V147.087H144.306V149.331H144.561V149.705H143.797V150.827H145.071V151.949H143.712V153.445H144.391V154.567H143.967V155.689H144.306V156.811H144.476V158.307H144.561V159.803H144.306V161.299H144.986V161.673H143.457V162.047H144.476V162.795H143.882V164.291H143.627C143.57 164.441 143.485 164.591 143.372 164.74C143.259 164.84 143.146 164.94 143.033 165.039H142.948C142.778 165.189 142.551 165.314 142.268 165.413H144.221C143.825 165.613 143.344 165.713 142.778 165.713H128.596C128.143 165.713 127.775 165.613 127.492 165.413H125.539C125.369 165.314 125.228 165.189 125.114 165.039H125.199C124.973 164.74 124.86 164.491 124.86 164.291H125.114V162.795H125.709V162.047H124.69V161.673H126.218V161.299H125.539V159.803H125.794V158.307H125.709V156.811H125.539V155.689H125.199V154.567H125.624V153.445H124.945V151.949H126.303V150.827H125.03V149.705H125.794V149.331H125.539V147.087H125.794V146.713H125.709V145.591H125.624V144.843H125.964V143.72H125.709V142.224H125.964V141.85H125.624V141.476H125.794L125.879 140.728H127.747C127.747 140.579 127.775 140.454 127.832 140.354H129.191C129.247 140.255 129.276 140.13 129.276 139.98H124.605C124.662 139.881 124.69 139.756 124.69 139.606C124.69 139.457 124.718 139.332 124.775 139.232H126.558C126.615 138.983 126.671 138.734 126.728 138.484C126.785 138.185 126.841 137.936 126.898 137.736H128.936L129.191 136.988H127.917C128.03 136.839 128.115 136.714 128.172 136.614C128.228 136.465 128.285 136.34 128.341 136.24H127.237C127.237 136.19 127.237 136.165 127.237 136.165C127.294 136.165 127.322 136.14 127.322 136.091H110.593C109.461 136.091 108.753 135.642 108.47 134.744H109.829C109.829 134.644 109.801 134.57 109.744 134.52C109.744 134.47 109.744 134.42 109.744 134.37H108.215C108.159 134.32 108.13 134.22 108.13 134.071V132.874H107.961V132.5H107.791V132.126H108.13V131.004H108.046V130.63H107.961V129.882H107.791V128.386H107.876V128.012H108.215V126.89H108.046V126.516H107.876V125.768H106.007V124.646H105.668C105.781 123.898 106.234 123.399 107.026 123.15H109.744C110.084 123.05 110.367 123 110.593 123H149.571C149.741 123 149.883 123.025 149.996 123.075C150.166 123.075 150.336 123.1 150.506 123.15H147.788C148.524 123.399 148.977 123.898 149.147 124.646H149.486C149.543 124.745 149.571 124.87 149.571 125.02V125.768H151.44V126.516H151.61V126.89H151.779V128.012H151.44V128.386H151.355V129.882H151.525V130.63H151.61V131.004H151.694V132.126H151.355V132.5H151.525V132.874H151.694V134.37Z" fill="black"/>
<path d="M210 161.673H195.054V162.047H204.056V163.169H210V163.693C210 164.092 209.887 164.416 209.66 164.665H204.905C204.678 165.014 204.424 165.264 204.141 165.413H199.13C198.847 165.613 198.451 165.713 197.941 165.713H160.916C160.407 165.713 160.01 165.613 159.727 165.413H164.653C164.37 165.264 164.115 165.014 163.888 164.665H168.644C168.474 164.366 168.389 164.042 168.389 163.693V163.169H162.445V162.047H153.443V161.673H168.389V160.925H164.653V159.803H160.746V158.681H163.039V157.185H161.68V155.689H160.661V154.941H167.37V154.193H162.7C162.7 153.794 162.841 153.42 163.124 153.071H161.256C161.709 152.522 162.332 152.248 163.124 152.248H180.872L180.278 151.575H174.843L174.164 150.827H179.853L179.174 150.079H176.541L175.862 149.331H175.353L175.013 148.957H175.692L174.673 147.835H174.928L174.249 147.087H174.164L173.824 146.713H174.164L173.909 146.339H173.23L172.89 145.965H173.654L171.956 144.094H170.767L169.748 142.972H171.531L170.512 141.85H170.767L170.088 141.102H170.003L169.323 140.354H166.181L165.502 139.606H161.765L161.426 139.232H167.455L167.115 138.858H165.757L164.738 137.736H162.53L161.511 136.614H161.935L160.661 135.118H159.897L159.303 134.37H163.803L162.53 132.874H161.765L161.426 132.5H162.02L160.661 131.004H160.577L159.982 130.256H159.303L158.963 129.882H159.048L158.029 128.76H158.454L157.18 127.264H158.538L157.265 125.768H156.925L156.755 125.543C156.699 125.444 156.642 125.369 156.585 125.319C156.529 125.219 156.472 125.119 156.415 125.02H156.331C156.217 124.82 156.161 124.646 156.161 124.496C156.161 124.297 156.217 124.097 156.331 123.898H157.35C157.633 123.299 158.199 123 159.048 123H174.079C174.758 123 175.296 123.1 175.692 123.299C176.145 123.449 176.485 123.648 176.711 123.898H175.607C175.89 124.147 176.06 124.322 176.117 124.421L176.626 125.02H176.796L177.476 125.768H177.73L179.004 127.264H177.645L178.919 128.76H178.495L179.429 129.882H179.344L179.684 130.256H180.363L181.042 131.004H181.127L182.401 132.5H181.807L182.146 132.874H182.826L183.76 133.846C183.816 133.697 183.873 133.547 183.93 133.398C183.986 133.248 184.043 133.073 184.099 132.874H185.543L185.713 132.5H185.373C185.43 132.251 185.486 132.001 185.543 131.752C185.6 131.503 185.656 131.253 185.713 131.004H186.817L186.902 130.256H185.883V129.882H186.987C186.987 129.682 186.987 129.508 186.987 129.358C186.987 129.159 187.015 128.959 187.072 128.76H189.704V127.264H184.354V125.768H188.176V125.02H183.93C184.043 124.471 184.184 124.097 184.354 123.898H187.581C188.091 123.299 188.742 123 189.534 123H202.187C202.867 123 203.461 123.299 203.971 123.898H200.744C201.027 124.247 201.168 124.621 201.168 125.02H205.414V125.768H201.593V127.264H206.943V128.76H204.31V129.882H203.206V130.256H204.225V131.004H203.121V131.079C203.121 131.278 203.121 131.503 203.121 131.752C203.121 132.001 203.093 132.251 203.037 132.5H203.376V132.874H201.933L201.678 134.37H204.225C204.169 134.47 204.141 134.594 204.141 134.744C204.141 134.894 204.112 135.018 204.056 135.118H199.895C199.838 135.367 199.753 135.617 199.64 135.866C199.583 136.115 199.498 136.365 199.385 136.614H199.045L198.536 137.736H200.829C200.772 137.936 200.687 138.135 200.574 138.335C200.461 138.484 200.347 138.659 200.234 138.858H201.593C201.593 138.908 201.536 139.033 201.423 139.232H195.394L195.224 139.606H198.96L198.451 140.354H201.593L201.083 141.102H201.168L200.659 141.85H200.404C200.291 142.05 200.149 142.249 199.979 142.449C199.81 142.598 199.64 142.773 199.47 142.972H197.687C197.517 143.172 197.347 143.371 197.177 143.571C197.007 143.72 196.809 143.895 196.583 144.094H197.856C197.8 144.144 197.715 144.194 197.602 144.244C197.545 144.294 197.488 144.369 197.432 144.469C196.866 145.067 196.271 145.566 195.649 145.965H194.884L194.375 146.339H195.054L194.545 146.713H194.12L194.035 146.787L194.29 147.087H194.46L195.054 147.835H194.799L195.733 148.957H195.139L195.479 149.331H195.988L196.668 150.079H199.3L199.895 150.827H194.29L194.884 151.575H200.319L201.168 152.547C201.395 152.747 201.536 152.921 201.593 153.071H203.461C203.744 153.42 203.971 153.794 204.141 154.193H208.811C208.924 154.492 208.981 154.741 208.981 154.941H202.272V155.689H203.291V157.185H204.65V158.681H202.357V159.803H206.264V160.925H210V161.673ZM179.599 134.37L180.278 135.118H180.957L181.212 135.417L181.467 135.118H185.628C185.741 135.018 185.826 134.894 185.883 134.744C185.939 134.594 185.996 134.47 186.053 134.37H179.599Z" fill="black"/>
<path fill-rule="evenodd" clip-rule="evenodd" d="M138.69 157.625C129.627 136.936 122.181 102.654 121.35 48.0405L125.5 48C126.329 102.441 133.754 136.317 142.605 156.524C147.032 166.628 151.781 173.236 156.158 177.286C160.565 181.363 164.391 182.675 167 182.675V186H84V182.675H157.099C155.743 181.788 154.379 180.719 153.02 179.462C148.189 174.991 143.22 167.967 138.69 157.625Z" fill="black"/>
<path fill-rule="evenodd" clip-rule="evenodd" d="M106.095 156.53C113.818 136.337 119.816 102.473 119.039 48.0415L122.932 48C123.712 102.606 117.706 136.89 109.791 157.586C105.834 167.933 101.369 174.966 96.9546 179.446C92.5637 183.901 88.0397 186 84 186V182.635C86.449 182.635 89.9871 181.326 93.9909 177.263C97.9709 173.224 102.233 166.628 106.095 156.53Z" fill="black"/>
<path fill-rule="evenodd" clip-rule="evenodd" d="M40 46L205 46V49L40 49V46Z" fill="black"/>
<path fill-rule="evenodd" clip-rule="evenodd" d="M192.67 101.018C190.017 92.1734 188 76.2374 188 49H190.691C190.691 76.0559 192.709 91.2256 195.102 99.2058C196.295 103.185 197.526 105.19 198.526 106.091C199.486 106.955 200.296 106.873 200.907 106.445L202 110.321C200.593 111.307 198.881 111.296 197.191 109.774C195.543 108.29 193.999 105.452 192.67 101.018Z" fill="black"/>
<path fill-rule="evenodd" clip-rule="evenodd" d="M129.231 43.0695C128.085 44.1491 127.391 45.5626 127.391 47.4673H123C123 44.9217 123.952 42.7656 125.79 41.0348C127.607 39.3233 130.162 38.1482 133.106 37.3701C138.93 35.8313 146.739 35.7251 155.062 36.3813C171.791 37.7001 191.746 42.203 205 45.9346L203.45 49C190.36 45.3145 170.801 40.9166 154.601 39.6395C146.46 38.9977 139.45 39.1696 134.572 40.4586C132.166 41.0944 130.398 41.9707 129.231 43.0695Z" fill="black"/>
<path fill-rule="evenodd" clip-rule="evenodd" d="M118.244 41.0348C120.059 42.7656 121 44.9217 121 47.4673H116.663C116.663 45.5626 115.977 44.1491 114.845 43.0695C113.692 41.9707 111.946 41.0944 109.569 40.4586C104.75 39.1696 97.8266 38.9977 89.7846 39.6395C73.7821 40.9166 54.4611 45.3145 41.531 49L40 45.9346C53.0919 42.203 72.8039 37.7001 89.3289 36.3813C97.5507 35.7251 105.264 35.8313 111.017 37.3701C113.926 38.1482 116.449 39.3233 118.244 41.0348Z" fill="black"/>
<path fill-rule="evenodd" clip-rule="evenodd" d="M181.062 99.126C183.486 91.1744 185.538 76.0401 185.538 49H188C188 76.2533 185.947 92.2246 183.242 101.098C181.883 105.556 180.315 108.367 178.675 109.819C177.014 111.29 175.36 111.289 174 110.353L174.914 106.414C175.607 106.891 176.517 106.961 177.549 106.047C178.603 105.113 179.856 103.081 181.062 99.126Z" fill="black"/>
<path fill-rule="evenodd" clip-rule="evenodd" d="M62.6784 101.119C60.0174 92.28 58 76.3187 58 49H60.6907C60.6907 76.1251 62.7094 91.264 65.0935 99.1828C66.2808 103.127 67.5031 105.095 68.4979 105.971C69.4561 106.815 70.2796 106.723 70.9072 106.267L72 110.28C70.6096 111.288 68.9105 111.324 67.22 109.835C65.5661 108.378 64.0136 105.554 62.6784 101.119Z" fill="black"/>
<path fill-rule="evenodd" clip-rule="evenodd" d="M50.9065 99.1828C53.2906 91.264 55.3093 76.1251 55.3093 49H58C58 76.3187 55.9826 92.28 53.3216 101.119C51.9864 105.554 50.4339 108.378 48.78 109.835C47.0895 111.324 45.3904 111.288 44 110.28L45.0928 106.267C45.7204 106.723 46.5439 106.815 47.5021 105.971C48.4969 105.095 49.7192 103.127 50.9065 99.1828Z" fill="black"/>
<path fill-rule="evenodd" clip-rule="evenodd" d="M57 117V52H59V117H57Z" fill="black"/>
<path fill-rule="evenodd" clip-rule="evenodd" d="M45 111.409L45.8949 108L58.155 113.189L69.0063 108.022L70 111.387L58.2106 117L45 111.409Z" fill="black"/>
<path fill-rule="evenodd" clip-rule="evenodd" d="M189 115V52H187V115H189Z" fill="black"/>
<path fill-rule="evenodd" clip-rule="evenodd" d="M188.623 113.229L175.762 108L175 111.444L188.665 117L201 111.427L200.161 108.016L188.623 113.229Z" fill="black"/>
</svg>
