<svg xmlns="http://www.w3.org/2000/svg" version="1.1" xmlns:xlink="http://www.w3.org/1999/xlink" xmlns:svgjs="http://svgjs.com/svgjs" width="1440" height="90" preserveAspectRatio="none" viewBox="0 0 1440 90"><g mask="url(&quot;#SvgjsMask1096&quot;)" fill="none"><rect width="1440" height="90" x="0" y="0" fill="rgba(64, 81, 59, 1)"></rect><path d="M0,261.792C53.119,258.9,109.384,268.557,154.996,241.179C201.112,213.498,227.074,162.794,247.69,113.116C267.764,64.743,274.731,13.256,271.27,-39.003C267.585,-94.638,254.584,-148.29,227.162,-196.837C194.949,-253.865,163.91,-325.971,100.317,-341.649C36.52,-357.377,-21.38,-302.188,-80.035,-272.574C-128.376,-248.167,-171.433,-219.52,-212.192,-183.865C-259.254,-142.697,-324.332,-109.721,-336.347,-48.359C-348.392,13.152,-302.946,69.652,-272.569,124.478C-244.338,175.43,-218.256,232.458,-166.234,258.665C-115.716,284.115,-56.483,264.867,0,261.792" fill="#2a3526"></path><path d="M1440 440.924C1515.266 435.286 1594.117 468.546 1661.768 435.078 1731.8609999999999 400.402 1769.93 326.276 1808.8519999999999 258.449 1851.2640000000001 184.541 1901.6109999999999 109.331 1897.542 24.215000000000003 1893.328-63.94 1857.867-158.349 1786.4470000000001-210.19799999999998 1717.155-260.501 1620.263-221.14800000000002 1536.316-238.022 1462.442-252.872 1398.101-319.611 1324.594-303.036 1250.567-286.344 1210.348-209.38600000000002 1159.499-153.056 1107.525-95.47900000000001 1031.641-47.008999999999986 1023.819 30.162 1016.019 107.11 1091.885 164.08499999999998 1120.051 236.116 1150.509 314.01 1125.358 424.893 1195.799 469.984 1266.267 515.092 1356.565 447.174 1440 440.924" fill="#566d50"></path></g><defs><mask id="SvgjsMask1096"><rect width="1440" height="90" fill="#ffffff"></rect></mask></defs></svg>